:FULLY-SPECIFIED
:FORCE-ALL-JOINTS-BE-3DOF
:DEGREES
65
root 9.11522 16.3426 -27.1287 5.28054 -11.3445 0.634228
lfemur -25.4687 7.13654 -24.0914
ltibia 31.307 0 0
lfoot -10.2986 7.93901 0
ltoes -4.07323 0 0
rfemur -6.54082 -0.93095 16.139
rtibia 59.1276 0 0
rfoot 4.39153 -10.6752 0
rtoes -3.02013 0 0
lowerback -5.10245 0.226879 -2.25887
upperback -2.07845 0.375925 2.56065
thorax 0.690015 0.204668 3.92926
lowerneck -22.5309 -4.08402 -11.6212
upperneck 17.7259 -4.7045 12.6364
head 9.94339 -1.53907 5.73075
lclavicle -1.21489e-14 8.62872e-15 0
lhumerus -37.6495 -6.86831 88.5959
lradius 21.4022 0 0
lwrist -3.08419 0 0
lhand 0.844943 -17.3028 0
lfingers 7.12502 0 0
lthumb 26.399 10.8751 0
rclavicle -1.21489e-14 8.62872e-15 0
rhumerus -42.9093 13.0058 -90.5076
rradius 38.2263 0 0
rwrist -19.8321 0 0
rhand -29.8293 -25.4016 0
rfingers 7.12502 0 0
rthumb -3.15265 -55.358 0
66
root 9.12638 16.3594 -27.0568 5.25391 -11.2451 0.645044
lfemur -24.9531 6.98941 -24.1606
ltibia 30.9007 0 0
lfoot -10.3009 8.05273 0
ltoes -4.1415 0 0
rfemur -7.28707 -1.01012 16.2955
rtibia 59.9766 0 0
rfoot 3.40344 -10.7549 0
rtoes -3.03766 0 0
lowerback -5.11588 0.158924 -2.25127
upperback -2.02623 0.284204 2.57225
thorax 0.758523 0.156917 3.93284
lowerneck -22.5571 -4.06303 -11.5408
upperneck 17.7072 -4.67778 12.553
head 9.93298 -1.52956 5.68937
lclavicle -1.74075e-14 1.52254e-14 0
lhumerus -37.2386 -7.15808 88.581
lradius 21.5085 0 0
lwrist -2.95743 0 0
lhand 0.463411 -17.3438 0
lfingers 7.12502 0 0
lthumb 26.0342 10.8921 0
rclavicle -1.74075e-14 1.52254e-14 0
rhumerus -42.8124 12.8961 -90.3959
rradius 38.2556 0 0
rwrist -19.9021 0 0
rhand -29.8566 -25.4769 0
rfingers 7.12502 0 0
rthumb -3.17898 -55.4329 0
67
root 9.11944 16.354 -27.1003 5.25876 -11.3341 0.578659
lfemur -25.1905 7.09119 -24.0521
ltibia 31.0535 0 0
lfoot -10.2192 8.0319 0
ltoes -4.09995 0 0
rfemur -6.8011 -0.989197 16.2669
rtibia 59.6204 0 0
rfoot 3.87486 -10.6797 0
rtoes -2.61707 0 0
lowerback -5.12157 0.197437 -2.19318
upperback -2.02295 0.332538 2.57571
thorax 0.76082 0.180792 3.90648
lowerneck -22.5665 -4.07274 -11.5427
upperneck 17.6609 -4.68756 12.5612
head 9.92005 -1.53304 5.68962
lclavicle -1.65737e-14 1.66979e-14 0
lhumerus -37.4797 -6.97695 88.584
lradius 21.4248 0 0
lwrist -3.04867 0 0
lhand 0.507587 -17.3638 0
lfingers 7.12502 0 0
lthumb 26.0765 10.8662 0
rclavicle -1.65737e-14 1.66979e-14 0
rhumerus -42.7869 12.923 -90.4558
rradius 38.2235 0 0
rwrist -19.862 0 0
rhand -29.8255 -25.6699 0
rfingers 7.12502 0 0
rthumb -3.14896 -55.6264 0
68
root 9.14054 16.3729 -26.9576 5.2356 -11.025 0.735077
lfemur -24.3642 6.74094 -24.3383
ltibia 30.4947 0 0
lfoot -10.4328 8.14447 0
ltoes -4.18179 0 0
rfemur -8.35852 -1.04679 16.4636
rtibia 60.7108 0 0
rfoot 2.02397 -10.814 0
rtoes -3.88061 0 0
lowerback -5.12425 0.0593799 -2.32628
upperback -2.00372 0.154846 2.5769
thorax 0.797737 0.0914512 3.97328
lowerneck -22.5444 -4.03811 -11.5015
upperneck 17.7773 -4.65242 12.5057
head 9.94941 -1.52078 5.67131
lclavicle -2.13611e-14 1.69335e-14 0
lhumerus -36.6391 -7.5723 88.5462
lradius 21.7055 0 0
lwrist -2.77633 0 0
lhand 0.218882 -17.3092 0
lfingers 7.12502 0 0
lthumb 25.8002 10.9626 0
rclavicle -2.13611e-14 1.69335e-14 0
rhumerus -42.8247 12.8489 -90.2777
rradius 38.3827 0 0
rwrist -20.0488 0 0
rhand -29.9222 -25.2361 0
rfingers 7.12502 0 0
rthumb -3.24237 -55.1911 0
